<?xml version="1.0" encoding="UTF-8" standalone="yes"?><svg xmlns="http://www.w3.org/2000/svg" xmlns:xlink="http://www.w3.org/1999/xlink" height="346px" style="width:245px;height:346px;" version="1.1" viewBox="0 0 245 346" width="245px"><defs><filter height="300%" id="f1" width="300%" x="-1" y="-1"><feGaussianBlur result="blurOut" stdDeviation="2.0"/><feColorMatrix in="blurOut" result="blurOut2" type="matrix" values="0 0 0 0 0 0 0 0 0 0 0 0 0 0 0 0 0 0 .4 0"/><feOffset dx="4.0" dy="4.0" in="blurOut2" result="blurOut3"/><feBlend in="SourceGraphic" in2="blurOut3" mode="normal"/></filter></defs><g><polygon fill="#FFFFFF" filter="url(#f1)" points="22,24,122,24,129,46.2969,238,46.2969,238,339,22,339,22,24" style="stroke: #000000; stroke-width: 2.0;"/><line style="stroke: #000000; stroke-width: 2.0;" x1="22" x2="129" y1="46.2969" y2="46.2969"/><text fill="#000000" font-family="sans-serif" font-size="14" font-weight="bold" lengthAdjust="spacingAndGlyphs" textLength="94" x="26" y="38.9951">android.app</text><rect fill="#FEFECE" filter="url(#f1)" height="48" style="stroke: #A80036; stroke-width: 1.5;" width="149" x="55.5" y="59"/><ellipse cx="70.5" cy="75" fill="#B4A7E5" rx="11" ry="11" style="stroke: #A80036; stroke-width: 1.0;"/><path d="M71.4531,71.7813 L71.4531,78.2969 L73.1719,78.2969 C73.625,78.2969 73.7656,78.3281 73.9375,78.4531 C74.1719,78.625 74.2813,78.875 74.2813,79.1563 C74.2813,79.7188 73.9219,80 73.1719,80 L68.0313,80 C67.625,80 67.4219,79.9531 67.2656,79.8281 C67.0469,79.6719 66.9063,79.4063 66.9063,79.1563 C66.9063,78.8594 67.0625,78.5781 67.3125,78.4219 C67.4688,78.3125 67.5938,78.2969 68.0313,78.2969 L69.75,78.2969 L69.75,71.7813 L68.0313,71.7813 C67.6094,71.7813 67.4219,71.75 67.2656,71.6406 C67.0469,71.4688 66.9063,71.2188 66.9063,70.9375 C66.9063,70.6563 67.0625,70.3594 67.3125,70.2031 C67.4688,70.1094 67.5938,70.0938 68.0313,70.0938 L73.1719,70.0938 C73.625,70.0938 73.7656,70.125 73.9375,70.2344 C74.1719,70.4063 74.2813,70.6719 74.2813,70.9375 C74.2813,71.2344 74.1406,71.5156 73.875,71.6719 C73.75,71.75 73.5625,71.7813 73.1719,71.7813 Z "/><text fill="#000000" font-family="sans-serif" font-size="12" font-style="italic" lengthAdjust="spacingAndGlyphs" textLength="117" x="84.5" y="79.1543">IApplicationThread</text><line style="stroke: #A80036; stroke-width: 1.5;" x1="56.5" x2="203.5" y1="91" y2="91"/><line style="stroke: #A80036; stroke-width: 1.5;" x1="56.5" x2="203.5" y1="99" y2="99"/><rect fill="#FEFECE" filter="url(#f1)" height="48" style="stroke: #A80036; stroke-width: 1.5;" width="184" x="38" y="167"/><ellipse cx="53" cy="183" fill="#ADD1B2" rx="11" ry="11" style="stroke: #A80036; stroke-width: 1.0;"/><path d="M55.3438,178.6719 L55.5156,178.75 C55.7344,178.4375 55.9375,178.3438 56.2344,178.3438 C56.5313,178.3438 56.8125,178.4844 56.9688,178.75 C57.0625,178.9063 57.0781,179.0313 57.0781,179.4688 L57.0781,180.8906 C57.0781,181.3125 57.0469,181.5 56.9375,181.6563 C56.7656,181.875 56.5,182.0156 56.2344,182.0156 C56.0156,182.0156 55.7813,181.9063 55.6406,181.7656 C55.5,181.6406 55.4688,181.5156 55.4063,181.1094 C55.3125,180.7031 55.1406,180.4844 54.6563,180.2031 C54.1875,179.9531 53.5781,179.7969 53,179.7969 C51.2656,179.7969 50.0156,181.1094 50.0156,182.8906 L50.0156,183.9844 C50.0156,185.6875 51.3125,186.7813 53.3594,186.7813 C54.125,186.7813 54.8125,186.6563 55.2344,186.3906 C55.4219,186.2969 55.4219,186.2969 55.875,185.8125 C56.0625,185.625 56.2656,185.5469 56.4844,185.5469 C56.9531,185.5469 57.3438,185.9375 57.3438,186.3906 C57.3438,186.7813 57.0156,187.2344 56.4375,187.6406 C55.6875,188.1875 54.5313,188.4844 53.3125,188.4844 C50.4219,188.4844 48.3125,186.5938 48.3125,184.0156 L48.3125,182.8906 C48.3125,180.1719 50.3125,178.0938 52.9375,178.0938 C53.8125,178.0938 54.4063,178.2344 55.3438,178.6719 Z "/><text fill="#000000" font-family="sans-serif" font-size="12" lengthAdjust="spacingAndGlyphs" textLength="152" x="67" y="187.1543">ApplicationThreadNative</text><line style="stroke: #A80036; stroke-width: 1.5;" x1="39" x2="221" y1="199" y2="199"/><line style="stroke: #A80036; stroke-width: 1.5;" x1="39" x2="221" y1="207" y2="207"/><rect fill="#FEFECE" filter="url(#f1)" height="48" style="stroke: #A80036; stroke-width: 1.5;" width="145" x="57.5" y="275"/><ellipse cx="72.5" cy="291" fill="#ADD1B2" rx="11" ry="11" style="stroke: #A80036; stroke-width: 1.0;"/><path d="M74.8438,286.6719 L75.0156,286.75 C75.2344,286.4375 75.4375,286.3438 75.7344,286.3438 C76.0313,286.3438 76.3125,286.4844 76.4688,286.75 C76.5625,286.9063 76.5781,287.0313 76.5781,287.4688 L76.5781,288.8906 C76.5781,289.3125 76.5469,289.5 76.4375,289.6563 C76.2656,289.875 76,290.0156 75.7344,290.0156 C75.5156,290.0156 75.2813,289.9063 75.1406,289.7656 C75,289.6406 74.9688,289.5156 74.9063,289.1094 C74.8125,288.7031 74.6406,288.4844 74.1563,288.2031 C73.6875,287.9531 73.0781,287.7969 72.5,287.7969 C70.7656,287.7969 69.5156,289.1094 69.5156,290.8906 L69.5156,291.9844 C69.5156,293.6875 70.8125,294.7813 72.8594,294.7813 C73.625,294.7813 74.3125,294.6563 74.7344,294.3906 C74.9219,294.2969 74.9219,294.2969 75.375,293.8125 C75.5625,293.625 75.7656,293.5469 75.9844,293.5469 C76.4531,293.5469 76.8438,293.9375 76.8438,294.3906 C76.8438,294.7813 76.5156,295.2344 75.9375,295.6406 C75.1875,296.1875 74.0313,296.4844 72.8125,296.4844 C69.9219,296.4844 67.8125,294.5938 67.8125,292.0156 L67.8125,290.8906 C67.8125,288.1719 69.8125,286.0938 72.4375,286.0938 C73.3125,286.0938 73.9063,286.2344 74.8438,286.6719 Z "/><text fill="#000000" font-family="sans-serif" font-size="12" lengthAdjust="spacingAndGlyphs" textLength="113" x="86.5" y="295.1543">ApplicationThread</text><line style="stroke: #A80036; stroke-width: 1.5;" x1="58.5" x2="201.5" y1="307" y2="307"/><line style="stroke: #A80036; stroke-width: 1.5;" x1="58.5" x2="201.5" y1="315" y2="315"/><path d="M130,127.024 C130,140.579 130,155.038 130,166.678 " fill="none" style="stroke: #A80036; stroke-width: 1.0; stroke-dasharray: 7.0,7.0;"/><polygon fill="none" points="123,127,130,107,137,127,123,127" style="stroke: #A80036; stroke-width: 1.0;"/><path d="M130,235.024 C130,248.579 130,263.0381 130,274.6784 " fill="none" style="stroke: #A80036; stroke-width: 1.0;"/><polygon fill="none" points="123,235,130,215,137,235,123,235" style="stroke: #A80036; stroke-width: 1.0;"/></g></svg>