<?xml version="1.0" encoding="UTF-8" standalone="yes"?><svg xmlns="http://www.w3.org/2000/svg" xmlns:xlink="http://www.w3.org/1999/xlink" height="564px" style="width:445px;height:564px;" version="1.1" viewBox="0 0 445 564" width="445px"><defs><filter height="300%" id="f1" width="300%" x="-1" y="-1"><feGaussianBlur result="blurOut" stdDeviation="2.0"/><feColorMatrix in="blurOut" result="blurOut2" type="matrix" values="0 0 0 0 0 0 0 0 0 0 0 0 0 0 0 0 0 0 .4 0"/><feOffset dx="4.0" dy="4.0" in="blurOut2" result="blurOut3"/><feBlend in="SourceGraphic" in2="blurOut3" mode="normal"/></filter></defs><g><polygon fill="#FFFFFF" filter="url(#f1)" points="22,24,122,24,129,46.2969,438,46.2969,438,557,22,557,22,24" style="stroke: #000000; stroke-width: 2.0;"/><line style="stroke: #000000; stroke-width: 2.0;" x1="22" x2="129" y1="46.2969" y2="46.2969"/><text fill="#000000" font-family="sans-serif" font-size="14" font-weight="bold" lengthAdjust="spacingAndGlyphs" textLength="94" x="26" y="38.9951">android.app</text><rect fill="#FEFECE" filter="url(#f1)" height="48" style="stroke: #A80036; stroke-width: 1.5;" width="105" x="38.5" y="257"/><ellipse cx="53.5" cy="273" fill="#ADD1B2" rx="11" ry="11" style="stroke: #A80036; stroke-width: 1.0;"/><path d="M55.8438,268.6719 L56.0156,268.75 C56.2344,268.4375 56.4375,268.3438 56.7344,268.3438 C57.0313,268.3438 57.3125,268.4844 57.4688,268.75 C57.5625,268.9063 57.5781,269.0313 57.5781,269.4688 L57.5781,270.8906 C57.5781,271.3125 57.5469,271.5 57.4375,271.6563 C57.2656,271.875 57,272.0156 56.7344,272.0156 C56.5156,272.0156 56.2813,271.9063 56.1406,271.7656 C56,271.6406 55.9688,271.5156 55.9063,271.1094 C55.8125,270.7031 55.6406,270.4844 55.1563,270.2031 C54.6875,269.9531 54.0781,269.7969 53.5,269.7969 C51.7656,269.7969 50.5156,271.1094 50.5156,272.8906 L50.5156,273.9844 C50.5156,275.6875 51.8125,276.7813 53.8594,276.7813 C54.625,276.7813 55.3125,276.6563 55.7344,276.3906 C55.9219,276.2969 55.9219,276.2969 56.375,275.8125 C56.5625,275.625 56.7656,275.5469 56.9844,275.5469 C57.4531,275.5469 57.8438,275.9375 57.8438,276.3906 C57.8438,276.7813 57.5156,277.2344 56.9375,277.6406 C56.1875,278.1875 55.0313,278.4844 53.8125,278.4844 C50.9219,278.4844 48.8125,276.5938 48.8125,274.0156 L48.8125,272.8906 C48.8125,270.1719 50.8125,268.0938 53.4375,268.0938 C54.3125,268.0938 54.9063,268.2344 55.8438,268.6719 Z "/><text fill="#000000" font-family="sans-serif" font-size="12" lengthAdjust="spacingAndGlyphs" textLength="73" x="67.5" y="277.1543">ContextImpl</text><line style="stroke: #A80036; stroke-width: 1.5;" x1="39.5" x2="142.5" y1="289" y2="289"/><line style="stroke: #A80036; stroke-width: 1.5;" x1="39.5" x2="142.5" y1="297" y2="297"/><rect fill="#FEFECE" filter="url(#f1)" height="124.8281" style="stroke: #A80036; stroke-width: 1.5;" width="248" x="106" y="59"/><ellipse cx="201.25" cy="75" fill="#A9DCDF" rx="11" ry="11" style="stroke: #A80036; stroke-width: 1.0;"/><path d="M202.8281,76.8125 L198.7813,76.8125 L198.3906,77.7969 L198.7813,77.7969 C199.2344,77.7969 199.375,77.8281 199.5469,77.9531 C199.7656,78.125 199.8906,78.375 199.8906,78.6563 C199.8906,78.9375 199.75,79.2344 199.4844,79.375 C199.3594,79.4688 199.1406,79.5 198.7813,79.5 L196.5156,79.5 C195.7656,79.5 195.3906,79.2188 195.3906,78.6563 C195.3906,78.3594 195.5469,78.0781 195.7969,77.9219 C195.9531,77.8125 196.1094,77.7969 196.5313,77.7969 L199.1719,71.2813 L198.0938,71.2813 C197.6563,71.2813 197.4844,71.25 197.3125,71.1406 C197.0938,70.9688 196.9531,70.7188 196.9531,70.4375 C196.9531,70.1563 197.1094,69.875 197.3594,69.7031 C197.5156,69.6094 197.6406,69.5938 198.0938,69.5938 L201.7656,69.5938 L205.1563,77.7969 C205.625,77.7969 205.7813,77.8281 205.9531,77.9688 C206.1719,78.125 206.3125,78.375 206.3125,78.6563 C206.3125,78.9375 206.1563,79.2344 205.9063,79.375 C205.7656,79.4688 205.5469,79.5 205.1875,79.5 L202.8281,79.5 C202.4063,79.5 202.2031,79.4531 202.0625,79.3281 C201.8438,79.1719 201.7031,78.9219 201.7031,78.6563 C201.7031,78.3594 201.8594,78.0781 202.1094,77.9219 C202.2656,77.8125 202.375,77.7969 202.8281,77.7969 L203.2188,77.7969 Z M202.125,75.1094 L200.7969,71.8438 L199.4531,75.1094 Z "/><text fill="#000000" font-family="sans-serif" font-size="12" font-style="italic" lengthAdjust="spacingAndGlyphs" textLength="49" x="221.75" y="79.1543">Context</text><line style="stroke: #A80036; stroke-width: 1.5;" x1="107" x2="353" y1="91" y2="91"/><line style="stroke: #A80036; stroke-width: 1.5;" x1="107" x2="353" y1="99" y2="99"/><ellipse cx="117" cy="110.9023" fill="#84BE84" rx="3" ry="3" style="stroke: #038048; stroke-width: 1.0;"/><text fill="#000000" font-family="sans-serif" font-size="11" lengthAdjust="spacingAndGlyphs" textLength="222" x="126" y="113.2104">PackageManager getPackageManager()</text><ellipse cx="117" cy="123.707" fill="#84BE84" rx="3" ry="3" style="stroke: #038048; stroke-width: 1.0;"/><text fill="#000000" font-family="sans-serif" font-size="11" lengthAdjust="spacingAndGlyphs" textLength="216" x="126" y="126.0151">ContentResolver getContentResolver()</text><ellipse cx="117" cy="136.5117" fill="#84BE84" rx="3" ry="3" style="stroke: #038048; stroke-width: 1.0;"/><text fill="#000000" font-family="sans-serif" font-size="11" lengthAdjust="spacingAndGlyphs" textLength="150" x="126" y="138.8198">Resources getResources()</text><ellipse cx="117" cy="149.3164" fill="#84BE84" rx="3" ry="3" style="stroke: #038048; stroke-width: 1.0;"/><text fill="#000000" font-family="sans-serif" font-size="11" lengthAdjust="spacingAndGlyphs" textLength="150" x="126" y="151.6245">AssetManager getAssets()</text><ellipse cx="117" cy="162.1211" fill="#84BE84" rx="3" ry="3" style="stroke: #038048; stroke-width: 1.0;"/><text fill="#000000" font-family="sans-serif" font-size="11" lengthAdjust="spacingAndGlyphs" textLength="169" x="126" y="164.4292">void startActivity(Intent intent)</text><ellipse cx="117" cy="174.9258" fill="#84BE84" rx="3" ry="3" style="stroke: #038048; stroke-width: 1.0;"/><text fill="#000000" font-family="sans-serif" font-size="11" lengthAdjust="spacingAndGlyphs" textLength="181" x="126" y="177.2339">void startService(Intent service)</text><rect fill="#FEFECE" filter="url(#f1)" height="163.2422" style="stroke: #A80036; stroke-width: 1.5;" width="337" x="84.5" y="378"/><ellipse cx="226.25" cy="394" fill="#ADD1B2" rx="11" ry="11" style="stroke: #A80036; stroke-width: 1.0;"/><path d="M228.5938,389.6719 L228.7656,389.75 C228.9844,389.4375 229.1875,389.3438 229.4844,389.3438 C229.7813,389.3438 230.0625,389.4844 230.2188,389.75 C230.3125,389.9063 230.3281,390.0313 230.3281,390.4688 L230.3281,391.8906 C230.3281,392.3125 230.2969,392.5 230.1875,392.6563 C230.0156,392.875 229.75,393.0156 229.4844,393.0156 C229.2656,393.0156 229.0313,392.9063 228.8906,392.7656 C228.75,392.6406 228.7188,392.5156 228.6563,392.1094 C228.5625,391.7031 228.3906,391.4844 227.9063,391.2031 C227.4375,390.9531 226.8281,390.7969 226.25,390.7969 C224.5156,390.7969 223.2656,392.1094 223.2656,393.8906 L223.2656,394.9844 C223.2656,396.6875 224.5625,397.7813 226.6094,397.7813 C227.375,397.7813 228.0625,397.6563 228.4844,397.3906 C228.6719,397.2969 228.6719,397.2969 229.125,396.8125 C229.3125,396.625 229.5156,396.5469 229.7344,396.5469 C230.2031,396.5469 230.5938,396.9375 230.5938,397.3906 C230.5938,397.7813 230.2656,398.2344 229.6875,398.6406 C228.9375,399.1875 227.7813,399.4844 226.5625,399.4844 C223.6719,399.4844 221.5625,397.5938 221.5625,395.0156 L221.5625,393.8906 C221.5625,391.1719 223.5625,389.0938 226.1875,389.0938 C227.0625,389.0938 227.6563,389.2344 228.5938,389.6719 Z "/><text fill="#000000" font-family="sans-serif" font-size="12" lengthAdjust="spacingAndGlyphs" textLength="45" x="246.75" y="398.1543">Service</text><line style="stroke: #A80036; stroke-width: 1.5;" x1="85.5" x2="420.5" y1="410" y2="410"/><rect fill="none" height="6" style="stroke: #C82930; stroke-width: 1.0;" width="6" x="92.5" y="418.9023"/><text fill="#000000" font-family="sans-serif" font-size="11" lengthAdjust="spacingAndGlyphs" textLength="89" x="104.5" y="424.2104">IBinder mToken</text><line style="stroke: #A80036; stroke-width: 1.5;" x1="85.5" x2="420.5" y1="430.8047" y2="430.8047"/><ellipse cx="95.5" cy="442.707" fill="#84BE84" rx="3" ry="3" style="stroke: #038048; stroke-width: 1.0;"/><text fill="#000000" font-family="sans-serif" font-size="11" lengthAdjust="spacingAndGlyphs" textLength="152" x="104.5" y="445.0151">Application getApplication()</text><ellipse cx="95.5" cy="455.5117" fill="#84BE84" rx="3" ry="3" style="stroke: #038048; stroke-width: 1.0;"/><text fill="#000000" font-family="sans-serif" font-size="11" lengthAdjust="spacingAndGlyphs" textLength="82" x="104.5" y="457.8198">void stopSelf()</text><ellipse cx="95.5" cy="468.3164" fill="#84BE84" rx="3" ry="3" style="stroke: #038048; stroke-width: 1.0;"/><text fill="#000000" font-family="sans-serif" font-size="11" lengthAdjust="spacingAndGlyphs" textLength="87" x="104.5" y="470.6245">void onCreate()</text><ellipse cx="95.5" cy="481.1211" fill="#84BE84" rx="3" ry="3" style="stroke: #038048; stroke-width: 1.0;"/><text fill="#000000" font-family="sans-serif" font-size="11" lengthAdjust="spacingAndGlyphs" textLength="311" x="104.5" y="483.4292">int onStartCommand(Intent intent, int flags, int startId)</text><ellipse cx="95.5" cy="493.9258" fill="#84BE84" rx="3" ry="3" style="stroke: #038048; stroke-width: 1.0;"/><text fill="#000000" font-family="sans-serif" font-size="11" lengthAdjust="spacingAndGlyphs" textLength="159" x="104.5" y="496.2339">IBinder onBind(Intent intent)</text><ellipse cx="95.5" cy="506.7305" fill="#84BE84" rx="3" ry="3" style="stroke: #038048; stroke-width: 1.0;"/><text fill="#000000" font-family="sans-serif" font-size="11" lengthAdjust="spacingAndGlyphs" textLength="178" x="104.5" y="509.0386">boolean onUnbind(Intent intent)</text><ellipse cx="95.5" cy="519.5352" fill="#84BE84" rx="3" ry="3" style="stroke: #038048; stroke-width: 1.0;"/><text fill="#000000" font-family="sans-serif" font-size="11" lengthAdjust="spacingAndGlyphs" textLength="172" x="104.5" y="521.8433">IBinder onRebind(Intent intent)</text><ellipse cx="95.5" cy="532.3398" fill="#84BE84" rx="3" ry="3" style="stroke: #038048; stroke-width: 1.0;"/><text fill="#000000" font-family="sans-serif" font-size="11" lengthAdjust="spacingAndGlyphs" textLength="66" x="104.5" y="534.6479">onDestroy()</text><rect fill="#FEFECE" filter="url(#f1)" height="73.6094" style="stroke: #A80036; stroke-width: 1.5;" width="243" x="178.5" y="244"/><ellipse cx="245.25" cy="260" fill="#ADD1B2" rx="11" ry="11" style="stroke: #A80036; stroke-width: 1.0;"/><path d="M247.5938,255.6719 L247.7656,255.75 C247.9844,255.4375 248.1875,255.3438 248.4844,255.3438 C248.7813,255.3438 249.0625,255.4844 249.2188,255.75 C249.3125,255.9063 249.3281,256.0313 249.3281,256.4688 L249.3281,257.8906 C249.3281,258.3125 249.2969,258.5 249.1875,258.6563 C249.0156,258.875 248.75,259.0156 248.4844,259.0156 C248.2656,259.0156 248.0313,258.9063 247.8906,258.7656 C247.75,258.6406 247.7188,258.5156 247.6563,258.1094 C247.5625,257.7031 247.3906,257.4844 246.9063,257.2031 C246.4375,256.9531 245.8281,256.7969 245.25,256.7969 C243.5156,256.7969 242.2656,258.1094 242.2656,259.8906 L242.2656,260.9844 C242.2656,262.6875 243.5625,263.7813 245.6094,263.7813 C246.375,263.7813 247.0625,263.6563 247.4844,263.3906 C247.6719,263.2969 247.6719,263.2969 248.125,262.8125 C248.3125,262.625 248.5156,262.5469 248.7344,262.5469 C249.2031,262.5469 249.5938,262.9375 249.5938,263.3906 C249.5938,263.7813 249.2656,264.2344 248.6875,264.6406 C247.9375,265.1875 246.7813,265.4844 245.5625,265.4844 C242.6719,265.4844 240.5625,263.5938 240.5625,261.0156 L240.5625,259.8906 C240.5625,257.1719 242.5625,255.0938 245.1875,255.0938 C246.0625,255.0938 246.6563,255.2344 247.5938,255.6719 Z "/><text fill="#000000" font-family="sans-serif" font-size="12" lengthAdjust="spacingAndGlyphs" textLength="101" x="265.75" y="264.1543">ContextWrapper</text><line style="stroke: #A80036; stroke-width: 1.5;" x1="179.5" x2="420.5" y1="276" y2="276"/><rect fill="none" height="6" style="stroke: #C82930; stroke-width: 1.0;" width="6" x="186.5" y="284.9023"/><text fill="#000000" font-family="sans-serif" font-size="11" lengthAdjust="spacingAndGlyphs" textLength="87" x="198.5" y="290.2104">Context mBase</text><line style="stroke: #A80036; stroke-width: 1.5;" x1="179.5" x2="420.5" y1="296.8047" y2="296.8047"/><rect fill="#F24D5C" height="6" style="stroke: #C82930; stroke-width: 1.0;" width="6" x="186.5" y="305.707"/><text fill="#000000" font-family="sans-serif" font-size="11" lengthAdjust="spacingAndGlyphs" textLength="217" x="198.5" y="311.0151">void attachBaseContext(Context base)</text><path d="M162.095,199.443 C143.596,220.403 124.947,241.534 111.393,256.893 " fill="none" style="stroke: #A80036; stroke-width: 1.0;"/><polygon fill="none" points="156.98,194.66,175.462,184.296,167.477,203.923,156.98,194.66" style="stroke: #A80036; stroke-width: 1.0;"/><path d="M285.146,337.783 C281.744,350.558 278.061,364.386 274.444,377.969 " fill="none" style="stroke: #A80036; stroke-width: 1.0;"/><polygon fill="none" points="278.465,335.669,290.375,318.143,291.993,339.271,278.465,335.669" style="stroke: #A80036; stroke-width: 1.0;"/><path d="M265.779,203.004 C272.143,217.322 278.472,231.562 283.925,243.831 " fill="none" style="stroke: #A80036; stroke-width: 1.0;"/><polygon fill="none" points="259.191,205.415,257.465,184.296,271.984,199.729,259.191,205.415" style="stroke: #A80036; stroke-width: 1.0;"/></g></svg>